# xmcd
#
# Track frame offsets:
# 180
# 13520
# 27348
# 42943
# 59688
# 72322
# 87541
# 100506
# 112965
# 124641
#
# Disc length: 1797 seconds
#
#
# Revision: 4
# Processed by: cddbd v1.5.2PL0 Copyright (c) Steve Scherf et al.
# Submitted via: FreeRIP 2.951 
#
DISCID=7f07030a
DTITLE=Barry White  - Forever Gold - Under The Influence Of Love
DYEAR=2000
DGENRE=Soul
TTITLE0=I've got the world to hold me up
TTITLE1=Under the influence of love (instrumental)
TTITLE2=Your heart and soul
TTITLE3=Long Black Veil (instrumental)
TTITLE4=All in the run of a day
TTITLE5=Come on in love
TTITLE6=Fragile, handle with care (instrumental)
TTITLE7=Out of the shadows of love
TTITLE8=Where can I turn to (instrumental)
TTITLE9=I owe it all to you
EXTD=
EXTT0=
EXTT1=
EXTT2=
EXTT3=
EXTT4=
EXTT5=
EXTT6=
EXTT7=
EXTT8=
EXTT9=
PLAYORDER=
